<mxfile host="app.diagrams.net" agent="Mozilla/5.0 (Windows NT 10.0; Win64; x64) AppleWebKit/537.36 (KHTML, like Gecko) Chrome/138.0.0.0 Safari/537.36 Edg/138.0.0.0" version="28.0.5">
  <diagram id="W_tIODRFpuCjmkMrIx5c" name="Trang-1">
    <mxGraphModel dx="1042" dy="-211" grid="1" gridSize="10" guides="1" tooltips="1" connect="1" arrows="1" fold="1" page="1" pageScale="1" pageWidth="1169" pageHeight="827" background="none" math="0" shadow="0">
      <root>
        <mxCell id="0" />
        <mxCell id="1" parent="0" />
        <mxCell id="GLhe2Kuq0IlxSYnBa73q-52" value="" style="edgeStyle=orthogonalEdgeStyle;rounded=0;orthogonalLoop=1;jettySize=auto;html=1;" parent="1" source="GLhe2Kuq0IlxSYnBa73q-1" target="GLhe2Kuq0IlxSYnBa73q-2" edge="1">
          <mxGeometry relative="1" as="geometry" />
        </mxCell>
        <mxCell id="GLhe2Kuq0IlxSYnBa73q-1" value="&lt;font style=&quot;font-size: 15px;&quot;&gt;Start&lt;/font&gt;" style="ellipse;whiteSpace=wrap;html=1;strokeWidth=1;" parent="1" vertex="1">
          <mxGeometry x="220.39" y="1360" width="120" height="80" as="geometry" />
        </mxCell>
        <mxCell id="Title-1" value="&lt;font style=&quot;font-size: 24px;&quot;&gt;Smart Clock v5.1 System Flowchart&lt;/font&gt;" style="rounded=0;whiteSpace=wrap;html=1;fillColor=#FFFFFF;strokeColor=#000000;fontSize=16;fontStyle=1;" parent="1" vertex="1">
          <mxGeometry x="360" y="1400" width="430" height="40" as="geometry" />
        </mxCell>
        <mxCell id="GLhe2Kuq0IlxSYnBa73q-53" value="" style="edgeStyle=orthogonalEdgeStyle;rounded=0;orthogonalLoop=1;jettySize=auto;html=1;entryX=0.5;entryY=0;entryDx=0;entryDy=0;" parent="1" source="GLhe2Kuq0IlxSYnBa73q-2" target="GLhe2Kuq0IlxSYnBa73q-5" edge="1">
          <mxGeometry relative="1" as="geometry" />
        </mxCell>
        <mxCell id="GLhe2Kuq0IlxSYnBa73q-2" value="Power on" style="rounded=0;whiteSpace=wrap;html=1;strokeWidth=1;" parent="1" vertex="1">
          <mxGeometry x="220.39" y="1470" width="120" height="60" as="geometry" />
        </mxCell>
        <mxCell id="xMWZw9OLZXF2lSfb2o35-5" style="edgeStyle=orthogonalEdgeStyle;rounded=0;orthogonalLoop=1;jettySize=auto;html=1;exitX=1;exitY=0.5;exitDx=0;exitDy=0;entryX=0;entryY=0.5;entryDx=0;entryDy=0;" parent="1" source="GLhe2Kuq0IlxSYnBa73q-3" target="GLhe2Kuq0IlxSYnBa73q-7" edge="1">
          <mxGeometry relative="1" as="geometry" />
        </mxCell>
        <mxCell id="GLhe2Kuq0IlxSYnBa73q-3" value="Clear all setup data" style="rounded=0;whiteSpace=wrap;html=1;strokeWidth=1;" parent="1" vertex="1">
          <mxGeometry x="370.39" y="1670" width="120" height="60" as="geometry" />
        </mxCell>
        <mxCell id="GLhe2Kuq0IlxSYnBa73q-54" value="" style="edgeStyle=orthogonalEdgeStyle;rounded=0;orthogonalLoop=1;jettySize=auto;html=1;" parent="1" source="GLhe2Kuq0IlxSYnBa73q-4" target="GLhe2Kuq0IlxSYnBa73q-3" edge="1">
          <mxGeometry relative="1" as="geometry" />
        </mxCell>
        <mxCell id="GLhe2Kuq0IlxSYnBa73q-58" value="Yes" style="edgeLabel;html=1;align=center;verticalAlign=middle;resizable=0;points=[];" parent="GLhe2Kuq0IlxSYnBa73q-54" vertex="1" connectable="0">
          <mxGeometry x="-0.192" y="1" relative="1" as="geometry">
            <mxPoint x="-1" y="-9" as="offset" />
          </mxGeometry>
        </mxCell>
        <mxCell id="8kBhJZ6nKaIt0Slx5SDv-23" style="edgeStyle=orthogonalEdgeStyle;rounded=0;orthogonalLoop=1;jettySize=auto;html=1;exitX=0.5;exitY=1;exitDx=0;exitDy=0;entryX=0.5;entryY=0;entryDx=0;entryDy=0;" parent="1" source="GLhe2Kuq0IlxSYnBa73q-4" target="GLhe2Kuq0IlxSYnBa73q-6" edge="1">
          <mxGeometry relative="1" as="geometry" />
        </mxCell>
        <mxCell id="8kBhJZ6nKaIt0Slx5SDv-24" value="No" style="edgeLabel;html=1;align=center;verticalAlign=middle;resizable=0;points=[];" parent="8kBhJZ6nKaIt0Slx5SDv-23" vertex="1" connectable="0">
          <mxGeometry x="-0.5131" relative="1" as="geometry">
            <mxPoint x="-10" y="1" as="offset" />
          </mxGeometry>
        </mxCell>
        <mxCell id="GLhe2Kuq0IlxSYnBa73q-4" value="&lt;div&gt;Check if &lt;br&gt;first boot?&amp;nbsp;&amp;nbsp;&lt;/div&gt;" style="rhombus;whiteSpace=wrap;html=1;strokeWidth=1;" parent="1" vertex="1">
          <mxGeometry x="234.64" y="1660" width="90" height="80" as="geometry" />
        </mxCell>
        <mxCell id="xMWZw9OLZXF2lSfb2o35-1" style="edgeStyle=orthogonalEdgeStyle;rounded=0;orthogonalLoop=1;jettySize=auto;html=1;exitX=0.5;exitY=1;exitDx=0;exitDy=0;entryX=0.5;entryY=0;entryDx=0;entryDy=0;" parent="1" source="GLhe2Kuq0IlxSYnBa73q-5" target="GLhe2Kuq0IlxSYnBa73q-4" edge="1">
          <mxGeometry relative="1" as="geometry" />
        </mxCell>
        <mxCell id="GLhe2Kuq0IlxSYnBa73q-5" value="Initialize hardware" style="rounded=0;whiteSpace=wrap;html=1;strokeWidth=1;" parent="1" vertex="1">
          <mxGeometry x="219.64" y="1560" width="120" height="60" as="geometry" />
        </mxCell>
        <mxCell id="xMWZw9OLZXF2lSfb2o35-7" style="edgeStyle=orthogonalEdgeStyle;rounded=0;orthogonalLoop=1;jettySize=auto;html=1;exitX=0.5;exitY=1;exitDx=0;exitDy=0;entryX=0.5;entryY=0;entryDx=0;entryDy=0;" parent="1" source="GLhe2Kuq0IlxSYnBa73q-6" target="GLhe2Kuq0IlxSYnBa73q-8" edge="1">
          <mxGeometry relative="1" as="geometry" />
        </mxCell>
        <mxCell id="GLhe2Kuq0IlxSYnBa73q-6" value="Connect to WiFi" style="rounded=0;whiteSpace=wrap;html=1;strokeWidth=1;" parent="1" vertex="1">
          <mxGeometry x="219.12000000000003" y="1780" width="121.27" height="60" as="geometry" />
        </mxCell>
        <mxCell id="8kBhJZ6nKaIt0Slx5SDv-79" style="edgeStyle=orthogonalEdgeStyle;rounded=0;orthogonalLoop=1;jettySize=auto;html=1;exitX=0.5;exitY=1;exitDx=0;exitDy=0;entryX=1;entryY=0.5;entryDx=0;entryDy=0;" parent="1" source="GLhe2Kuq0IlxSYnBa73q-7" target="GLhe2Kuq0IlxSYnBa73q-6" edge="1">
          <mxGeometry relative="1" as="geometry" />
        </mxCell>
        <mxCell id="GLhe2Kuq0IlxSYnBa73q-7" value="Load default configs" style="rounded=0;whiteSpace=wrap;html=1;strokeWidth=1;" parent="1" vertex="1">
          <mxGeometry x="530.39" y="1670" width="120" height="60" as="geometry" />
        </mxCell>
        <mxCell id="8kBhJZ6nKaIt0Slx5SDv-40" value="" style="edgeStyle=orthogonalEdgeStyle;rounded=0;orthogonalLoop=1;jettySize=auto;html=1;" parent="1" source="GLhe2Kuq0IlxSYnBa73q-8" target="GLhe2Kuq0IlxSYnBa73q-14" edge="1">
          <mxGeometry relative="1" as="geometry" />
        </mxCell>
        <mxCell id="GLhe2Kuq0IlxSYnBa73q-8" value="Enter Normal State" style="rounded=0;whiteSpace=wrap;html=1;strokeWidth=1;" parent="1" vertex="1">
          <mxGeometry x="218.49" y="1880" width="121.27" height="60" as="geometry" />
        </mxCell>
        <mxCell id="8kBhJZ6nKaIt0Slx5SDv-30" value="" style="edgeStyle=orthogonalEdgeStyle;rounded=0;orthogonalLoop=1;jettySize=auto;html=1;" parent="1" source="GLhe2Kuq0IlxSYnBa73q-11" target="8kBhJZ6nKaIt0Slx5SDv-29" edge="1">
          <mxGeometry relative="1" as="geometry" />
        </mxCell>
        <mxCell id="GLhe2Kuq0IlxSYnBa73q-11" value="Read temperature" style="rounded=0;whiteSpace=wrap;html=1;strokeWidth=1;" parent="1" vertex="1">
          <mxGeometry x="219.12" y="2090.5" width="122.5" height="60" as="geometry" />
        </mxCell>
        <mxCell id="8kBhJZ6nKaIt0Slx5SDv-36" value="" style="edgeStyle=orthogonalEdgeStyle;rounded=0;orthogonalLoop=1;jettySize=auto;html=1;" parent="1" source="GLhe2Kuq0IlxSYnBa73q-13" target="8kBhJZ6nKaIt0Slx5SDv-35" edge="1">
          <mxGeometry relative="1" as="geometry" />
        </mxCell>
        <mxCell id="GLhe2Kuq0IlxSYnBa73q-13" value="Fetch weather data" style="rounded=0;whiteSpace=wrap;html=1;" parent="1" vertex="1">
          <mxGeometry x="216" y="2340" width="128.75" height="60" as="geometry" />
        </mxCell>
        <mxCell id="GZuMhr4VgQg-RMSn4dlr-65" style="edgeStyle=orthogonalEdgeStyle;rounded=0;orthogonalLoop=1;jettySize=auto;html=1;exitX=0.5;exitY=1;exitDx=0;exitDy=0;entryX=0.5;entryY=0;entryDx=0;entryDy=0;" parent="1" source="GLhe2Kuq0IlxSYnBa73q-14" target="GLhe2Kuq0IlxSYnBa73q-11" edge="1">
          <mxGeometry relative="1" as="geometry" />
        </mxCell>
        <mxCell id="GLhe2Kuq0IlxSYnBa73q-14" value="Handle web interface requests (alarms, timer, settings...)" style="rounded=0;whiteSpace=wrap;html=1;" parent="1" vertex="1">
          <mxGeometry x="220.39" y="1970" width="120" height="60" as="geometry" />
        </mxCell>
        <mxCell id="GLhe2Kuq0IlxSYnBa73q-80" value="" style="edgeStyle=orthogonalEdgeStyle;rounded=0;orthogonalLoop=1;jettySize=auto;html=1;entryX=0.5;entryY=0;entryDx=0;entryDy=0;exitX=0.5;exitY=1;exitDx=0;exitDy=0;" parent="1" source="8kBhJZ6nKaIt0Slx5SDv-35" target="GLhe2Kuq0IlxSYnBa73q-109" edge="1">
          <mxGeometry relative="1" as="geometry">
            <mxPoint x="220" y="1710" as="targetPoint" />
            <mxPoint x="231.33333333333326" y="1660" as="sourcePoint" />
          </mxGeometry>
        </mxCell>
        <mxCell id="8kBhJZ6nKaIt0Slx5SDv-41" value="No" style="edgeLabel;html=1;align=center;verticalAlign=middle;resizable=0;points=[];" parent="GLhe2Kuq0IlxSYnBa73q-80" vertex="1" connectable="0">
          <mxGeometry x="-0.2857" y="3" relative="1" as="geometry">
            <mxPoint x="7" y="6" as="offset" />
          </mxGeometry>
        </mxCell>
        <mxCell id="GLhe2Kuq0IlxSYnBa73q-112" value="" style="edgeStyle=orthogonalEdgeStyle;rounded=0;orthogonalLoop=1;jettySize=auto;html=1;" parent="1" source="GLhe2Kuq0IlxSYnBa73q-31" target="GLhe2Kuq0IlxSYnBa73q-32" edge="1">
          <mxGeometry relative="1" as="geometry" />
        </mxCell>
        <mxCell id="GLhe2Kuq0IlxSYnBa73q-31" value="Factory reset all settings and data" style="rounded=0;whiteSpace=wrap;html=1;" parent="1" vertex="1">
          <mxGeometry x="360.39" y="2590" width="120" height="60" as="geometry" />
        </mxCell>
        <mxCell id="GZuMhr4VgQg-RMSn4dlr-63" style="edgeStyle=orthogonalEdgeStyle;rounded=0;orthogonalLoop=1;jettySize=auto;html=1;exitX=1;exitY=0.5;exitDx=0;exitDy=0;entryX=1;entryY=0.5;entryDx=0;entryDy=0;" parent="1" source="GLhe2Kuq0IlxSYnBa73q-32" target="GLhe2Kuq0IlxSYnBa73q-5" edge="1">
          <mxGeometry relative="1" as="geometry">
            <mxPoint x="680" y="2500" as="targetPoint" />
            <Array as="points">
              <mxPoint x="680" y="2620" />
              <mxPoint x="680" y="1590" />
            </Array>
          </mxGeometry>
        </mxCell>
        <mxCell id="GLhe2Kuq0IlxSYnBa73q-32" value="Restart device" style="rounded=0;whiteSpace=wrap;html=1;" parent="1" vertex="1">
          <mxGeometry x="520.39" y="2590" width="120" height="60" as="geometry" />
        </mxCell>
        <mxCell id="GLhe2Kuq0IlxSYnBa73q-118" value="" style="edgeStyle=orthogonalEdgeStyle;rounded=0;orthogonalLoop=1;jettySize=auto;html=1;" parent="1" source="GLhe2Kuq0IlxSYnBa73q-35" target="GLhe2Kuq0IlxSYnBa73q-36" edge="1">
          <mxGeometry relative="1" as="geometry" />
        </mxCell>
        <mxCell id="GLhe2Kuq0IlxSYnBa73q-35" value="Enter alarm display" style="rounded=0;whiteSpace=wrap;html=1;" parent="1" vertex="1">
          <mxGeometry x="360.38" y="2710" width="120" height="60" as="geometry" />
        </mxCell>
        <mxCell id="8kBhJZ6nKaIt0Slx5SDv-2" value="" style="edgeStyle=orthogonalEdgeStyle;rounded=0;orthogonalLoop=1;jettySize=auto;html=1;" parent="1" source="GLhe2Kuq0IlxSYnBa73q-36" target="8kBhJZ6nKaIt0Slx5SDv-1" edge="1">
          <mxGeometry relative="1" as="geometry" />
        </mxCell>
        <mxCell id="GLhe2Kuq0IlxSYnBa73q-36" value="Active buzzer &lt;br&gt;and LED" style="rounded=0;whiteSpace=wrap;html=1;" parent="1" vertex="1">
          <mxGeometry x="520.38" y="2710" width="120" height="60" as="geometry" />
        </mxCell>
        <mxCell id="8kBhJZ6nKaIt0Slx5SDv-72" style="edgeStyle=orthogonalEdgeStyle;rounded=0;orthogonalLoop=1;jettySize=auto;html=1;exitX=1;exitY=0.5;exitDx=0;exitDy=0;entryX=1;entryY=0.5;entryDx=0;entryDy=0;" parent="1" source="GLhe2Kuq0IlxSYnBa73q-38" target="GLhe2Kuq0IlxSYnBa73q-44" edge="1">
          <mxGeometry relative="1" as="geometry" />
        </mxCell>
        <mxCell id="GLhe2Kuq0IlxSYnBa73q-38" value="Stop alarm" style="rounded=0;whiteSpace=wrap;html=1;" parent="1" vertex="1">
          <mxGeometry x="960.38" y="2710" width="120" height="60" as="geometry" />
        </mxCell>
        <mxCell id="GLhe2Kuq0IlxSYnBa73q-128" value="" style="edgeStyle=orthogonalEdgeStyle;rounded=0;orthogonalLoop=1;jettySize=auto;html=1;" parent="1" source="GLhe2Kuq0IlxSYnBa73q-41" target="GLhe2Kuq0IlxSYnBa73q-42" edge="1">
          <mxGeometry relative="1" as="geometry" />
        </mxCell>
        <mxCell id="GLhe2Kuq0IlxSYnBa73q-41" value="Enter&amp;nbsp;&lt;span style=&quot;background-color: transparent; color: light-dark(rgb(0, 0, 0), rgb(255, 255, 255));&quot;&gt;timer display&lt;/span&gt;" style="rounded=0;whiteSpace=wrap;html=1;" parent="1" vertex="1">
          <mxGeometry x="360" y="2830" width="120" height="60" as="geometry" />
        </mxCell>
        <mxCell id="8kBhJZ6nKaIt0Slx5SDv-13" value="" style="edgeStyle=orthogonalEdgeStyle;rounded=0;orthogonalLoop=1;jettySize=auto;html=1;" parent="1" source="GLhe2Kuq0IlxSYnBa73q-42" target="8kBhJZ6nKaIt0Slx5SDv-12" edge="1">
          <mxGeometry relative="1" as="geometry" />
        </mxCell>
        <mxCell id="GLhe2Kuq0IlxSYnBa73q-42" value="Activate buzzer &lt;br&gt;and LED" style="rounded=0;whiteSpace=wrap;html=1;" parent="1" vertex="1">
          <mxGeometry x="520" y="2830" width="120" height="60" as="geometry" />
        </mxCell>
        <mxCell id="8kBhJZ6nKaIt0Slx5SDv-68" style="edgeStyle=orthogonalEdgeStyle;rounded=0;orthogonalLoop=1;jettySize=auto;html=1;exitX=0.5;exitY=1;exitDx=0;exitDy=0;entryX=0.5;entryY=0;entryDx=0;entryDy=0;" parent="1" source="GLhe2Kuq0IlxSYnBa73q-44" target="8kBhJZ6nKaIt0Slx5SDv-48" edge="1">
          <mxGeometry relative="1" as="geometry" />
        </mxCell>
        <mxCell id="GLhe2Kuq0IlxSYnBa73q-44" value="Enter &lt;br&gt;normal display" style="rounded=0;whiteSpace=wrap;html=1;" parent="1" vertex="1">
          <mxGeometry x="220" y="2940" width="120" height="60" as="geometry" />
        </mxCell>
        <mxCell id="GLhe2Kuq0IlxSYnBa73q-134" value="" style="edgeStyle=orthogonalEdgeStyle;rounded=0;orthogonalLoop=1;jettySize=auto;html=1;" parent="1" edge="1">
          <mxGeometry relative="1" as="geometry">
            <mxPoint x="480" y="3080" as="sourcePoint" />
          </mxGeometry>
        </mxCell>
        <mxCell id="GLhe2Kuq0IlxSYnBa73q-135" value="" style="edgeStyle=orthogonalEdgeStyle;rounded=0;orthogonalLoop=1;jettySize=auto;html=1;" parent="1" edge="1">
          <mxGeometry relative="1" as="geometry">
            <mxPoint x="640" y="3080" as="sourcePoint" />
          </mxGeometry>
        </mxCell>
        <mxCell id="ButtonInterrupt-Edge1" value="" style="edgeStyle=orthogonalEdgeStyle;rounded=0;orthogonalLoop=1;jettySize=auto;html=1;strokeColor=#d6b656;" parent="1" edge="1">
          <mxGeometry relative="1" as="geometry">
            <mxPoint x="470" y="1810" as="sourcePoint" />
          </mxGeometry>
        </mxCell>
        <mxCell id="ButtonInterrupt-Edge2" value="" style="edgeStyle=orthogonalEdgeStyle;rounded=0;orthogonalLoop=1;jettySize=auto;html=1;strokeColor=#d6b656;" parent="1" edge="1">
          <mxGeometry relative="1" as="geometry">
            <mxPoint x="470" y="1860" as="sourcePoint" />
          </mxGeometry>
        </mxCell>
        <mxCell id="GLhe2Kuq0IlxSYnBa73q-110" value="" style="edgeStyle=orthogonalEdgeStyle;rounded=0;orthogonalLoop=1;jettySize=auto;html=1;exitX=1;exitY=0.5;exitDx=0;exitDy=0;" parent="1" source="GLhe2Kuq0IlxSYnBa73q-109" target="GLhe2Kuq0IlxSYnBa73q-31" edge="1">
          <mxGeometry relative="1" as="geometry">
            <mxPoint x="150" y="2481" as="sourcePoint" />
          </mxGeometry>
        </mxCell>
        <mxCell id="GLhe2Kuq0IlxSYnBa73q-111" value="Yes" style="edgeLabel;html=1;align=center;verticalAlign=middle;resizable=0;points=[];" parent="GLhe2Kuq0IlxSYnBa73q-110" vertex="1" connectable="0">
          <mxGeometry x="-0.2625" y="1" relative="1" as="geometry">
            <mxPoint y="-11" as="offset" />
          </mxGeometry>
        </mxCell>
        <mxCell id="GZuMhr4VgQg-RMSn4dlr-56" style="edgeStyle=orthogonalEdgeStyle;rounded=0;orthogonalLoop=1;jettySize=auto;html=1;exitX=0.5;exitY=1;exitDx=0;exitDy=0;entryX=0.5;entryY=0;entryDx=0;entryDy=0;" parent="1" source="GLhe2Kuq0IlxSYnBa73q-109" target="GLhe2Kuq0IlxSYnBa73q-116" edge="1">
          <mxGeometry relative="1" as="geometry" />
        </mxCell>
        <mxCell id="GZuMhr4VgQg-RMSn4dlr-57" value="No" style="edgeLabel;html=1;align=center;verticalAlign=middle;resizable=0;points=[];" parent="GZuMhr4VgQg-RMSn4dlr-56" vertex="1" connectable="0">
          <mxGeometry x="-0.2667" y="-1" relative="1" as="geometry">
            <mxPoint x="-9" y="-4" as="offset" />
          </mxGeometry>
        </mxCell>
        <mxCell id="GLhe2Kuq0IlxSYnBa73q-109" value="Button long press&amp;nbsp;≥5s?&amp;nbsp;" style="rhombus;whiteSpace=wrap;html=1;" parent="1" vertex="1">
          <mxGeometry x="240.39" y="2580" width="80" height="80" as="geometry" />
        </mxCell>
        <mxCell id="GLhe2Kuq0IlxSYnBa73q-117" value="" style="edgeStyle=orthogonalEdgeStyle;rounded=0;orthogonalLoop=1;jettySize=auto;html=1;" parent="1" source="GLhe2Kuq0IlxSYnBa73q-116" target="GLhe2Kuq0IlxSYnBa73q-35" edge="1">
          <mxGeometry relative="1" as="geometry" />
        </mxCell>
        <mxCell id="GLhe2Kuq0IlxSYnBa73q-123" value="Yes" style="edgeLabel;html=1;align=center;verticalAlign=middle;resizable=0;points=[];" parent="GLhe2Kuq0IlxSYnBa73q-117" vertex="1" connectable="0">
          <mxGeometry x="-0.2" y="-1" relative="1" as="geometry">
            <mxPoint x="-2" y="-11" as="offset" />
          </mxGeometry>
        </mxCell>
        <mxCell id="GLhe2Kuq0IlxSYnBa73q-124" style="edgeStyle=orthogonalEdgeStyle;rounded=0;orthogonalLoop=1;jettySize=auto;html=1;exitX=0.5;exitY=1;exitDx=0;exitDy=0;entryX=0.5;entryY=0;entryDx=0;entryDy=0;" parent="1" source="GLhe2Kuq0IlxSYnBa73q-116" target="GLhe2Kuq0IlxSYnBa73q-125" edge="1">
          <mxGeometry relative="1" as="geometry">
            <mxPoint x="280" y="2820" as="targetPoint" />
            <Array as="points" />
          </mxGeometry>
        </mxCell>
        <mxCell id="GLhe2Kuq0IlxSYnBa73q-143" value="No" style="edgeLabel;html=1;align=center;verticalAlign=middle;resizable=0;points=[];" parent="GLhe2Kuq0IlxSYnBa73q-124" vertex="1" connectable="0">
          <mxGeometry x="-0.9481" y="4" relative="1" as="geometry">
            <mxPoint x="-14" y="9" as="offset" />
          </mxGeometry>
        </mxCell>
        <mxCell id="GLhe2Kuq0IlxSYnBa73q-116" value="Alarm time reached?" style="rhombus;whiteSpace=wrap;html=1;" parent="1" vertex="1">
          <mxGeometry x="240.38" y="2700" width="80" height="80" as="geometry" />
        </mxCell>
        <mxCell id="GLhe2Kuq0IlxSYnBa73q-126" value="" style="edgeStyle=orthogonalEdgeStyle;rounded=0;orthogonalLoop=1;jettySize=auto;html=1;" parent="1" source="GLhe2Kuq0IlxSYnBa73q-125" target="GLhe2Kuq0IlxSYnBa73q-41" edge="1">
          <mxGeometry relative="1" as="geometry" />
        </mxCell>
        <mxCell id="GLhe2Kuq0IlxSYnBa73q-127" value="Yes" style="edgeLabel;html=1;align=center;verticalAlign=middle;resizable=0;points=[];" parent="GLhe2Kuq0IlxSYnBa73q-126" vertex="1" connectable="0">
          <mxGeometry x="-0.4" relative="1" as="geometry">
            <mxPoint x="6" y="-10" as="offset" />
          </mxGeometry>
        </mxCell>
        <mxCell id="8kBhJZ6nKaIt0Slx5SDv-69" style="edgeStyle=orthogonalEdgeStyle;rounded=0;orthogonalLoop=1;jettySize=auto;html=1;exitX=0.5;exitY=1;exitDx=0;exitDy=0;entryX=0.5;entryY=0;entryDx=0;entryDy=0;" parent="1" source="GLhe2Kuq0IlxSYnBa73q-125" target="GLhe2Kuq0IlxSYnBa73q-44" edge="1">
          <mxGeometry relative="1" as="geometry" />
        </mxCell>
        <mxCell id="8kBhJZ6nKaIt0Slx5SDv-78" value="No" style="edgeLabel;html=1;align=center;verticalAlign=middle;resizable=0;points=[];" parent="8kBhJZ6nKaIt0Slx5SDv-69" vertex="1" connectable="0">
          <mxGeometry x="-0.1643" relative="1" as="geometry">
            <mxPoint x="-10" y="-7" as="offset" />
          </mxGeometry>
        </mxCell>
        <mxCell id="GLhe2Kuq0IlxSYnBa73q-125" value="Timer finished?" style="rhombus;whiteSpace=wrap;html=1;" parent="1" vertex="1">
          <mxGeometry x="239.75" y="2820" width="80" height="80" as="geometry" />
        </mxCell>
        <mxCell id="GLhe2Kuq0IlxSYnBa73q-137" style="edgeStyle=orthogonalEdgeStyle;rounded=0;orthogonalLoop=1;jettySize=auto;html=1;exitX=1;exitY=0.5;exitDx=0;exitDy=0;entryX=0;entryY=0.5;entryDx=0;entryDy=0;" parent="1" edge="1">
          <mxGeometry relative="1" as="geometry">
            <mxPoint x="320" y="3080" as="sourcePoint" />
          </mxGeometry>
        </mxCell>
        <mxCell id="GLhe2Kuq0IlxSYnBa73q-138" value="Yes" style="edgeLabel;html=1;align=center;verticalAlign=middle;resizable=0;points=[];" parent="GLhe2Kuq0IlxSYnBa73q-137" vertex="1" connectable="0">
          <mxGeometry x="-0.4375" y="-1" relative="1" as="geometry">
            <mxPoint x="7" y="-11" as="offset" />
          </mxGeometry>
        </mxCell>
        <mxCell id="8kBhJZ6nKaIt0Slx5SDv-26" value="" style="edgeStyle=orthogonalEdgeStyle;rounded=0;orthogonalLoop=1;jettySize=auto;html=1;entryX=0;entryY=0.5;entryDx=0;entryDy=0;exitX=0;exitY=0.5;exitDx=0;exitDy=0;" parent="1" source="8kBhJZ6nKaIt0Slx5SDv-50" target="GLhe2Kuq0IlxSYnBa73q-8" edge="1">
          <mxGeometry relative="1" as="geometry">
            <mxPoint x="40" y="3230" as="sourcePoint" />
            <Array as="points">
              <mxPoint x="160" y="3290" />
              <mxPoint x="160" y="1910" />
            </Array>
          </mxGeometry>
        </mxCell>
        <mxCell id="8kBhJZ6nKaIt0Slx5SDv-7" value="" style="edgeStyle=orthogonalEdgeStyle;rounded=0;orthogonalLoop=1;jettySize=auto;html=1;" parent="1" source="8kBhJZ6nKaIt0Slx5SDv-1" target="8kBhJZ6nKaIt0Slx5SDv-5" edge="1">
          <mxGeometry relative="1" as="geometry" />
        </mxCell>
        <mxCell id="8kBhJZ6nKaIt0Slx5SDv-11" value="No" style="edgeLabel;html=1;align=center;verticalAlign=middle;resizable=0;points=[];" parent="8kBhJZ6nKaIt0Slx5SDv-7" vertex="1" connectable="0">
          <mxGeometry x="-0.33" y="4" relative="1" as="geometry">
            <mxPoint y="-6" as="offset" />
          </mxGeometry>
        </mxCell>
        <mxCell id="8kBhJZ6nKaIt0Slx5SDv-9" style="edgeStyle=orthogonalEdgeStyle;rounded=0;orthogonalLoop=1;jettySize=auto;html=1;exitX=0.5;exitY=0;exitDx=0;exitDy=0;entryX=0.5;entryY=0;entryDx=0;entryDy=0;" parent="1" source="8kBhJZ6nKaIt0Slx5SDv-1" target="GLhe2Kuq0IlxSYnBa73q-38" edge="1">
          <mxGeometry relative="1" as="geometry">
            <Array as="points">
              <mxPoint x="720" y="2680" />
              <mxPoint x="1020" y="2680" />
            </Array>
          </mxGeometry>
        </mxCell>
        <mxCell id="8kBhJZ6nKaIt0Slx5SDv-10" value="Yes" style="edgeLabel;html=1;align=center;verticalAlign=middle;resizable=0;points=[];" parent="8kBhJZ6nKaIt0Slx5SDv-9" vertex="1" connectable="0">
          <mxGeometry x="-0.9308" y="3" relative="1" as="geometry">
            <mxPoint x="13" y="3" as="offset" />
          </mxGeometry>
        </mxCell>
        <mxCell id="8kBhJZ6nKaIt0Slx5SDv-1" value="Is button press?" style="rhombus;whiteSpace=wrap;html=1;rounded=0;" parent="1" vertex="1">
          <mxGeometry x="680.38" y="2700" width="80" height="80" as="geometry" />
        </mxCell>
        <mxCell id="8kBhJZ6nKaIt0Slx5SDv-8" value="" style="edgeStyle=orthogonalEdgeStyle;rounded=0;orthogonalLoop=1;jettySize=auto;html=1;" parent="1" source="8kBhJZ6nKaIt0Slx5SDv-5" target="GLhe2Kuq0IlxSYnBa73q-38" edge="1">
          <mxGeometry relative="1" as="geometry" />
        </mxCell>
        <mxCell id="8kBhJZ6nKaIt0Slx5SDv-5" value="Wait for 5 minutes" style="rounded=0;whiteSpace=wrap;html=1;" parent="1" vertex="1">
          <mxGeometry x="800.38" y="2710" width="120" height="60" as="geometry" />
        </mxCell>
        <mxCell id="8kBhJZ6nKaIt0Slx5SDv-15" value="" style="edgeStyle=orthogonalEdgeStyle;rounded=0;orthogonalLoop=1;jettySize=auto;html=1;" parent="1" source="8kBhJZ6nKaIt0Slx5SDv-12" target="8kBhJZ6nKaIt0Slx5SDv-14" edge="1">
          <mxGeometry relative="1" as="geometry" />
        </mxCell>
        <mxCell id="8kBhJZ6nKaIt0Slx5SDv-21" value="No" style="edgeLabel;html=1;align=center;verticalAlign=middle;resizable=0;points=[];" parent="8kBhJZ6nKaIt0Slx5SDv-15" vertex="1" connectable="0">
          <mxGeometry x="-0.18" relative="1" as="geometry">
            <mxPoint y="-10" as="offset" />
          </mxGeometry>
        </mxCell>
        <mxCell id="8kBhJZ6nKaIt0Slx5SDv-19" style="edgeStyle=orthogonalEdgeStyle;rounded=0;orthogonalLoop=1;jettySize=auto;html=1;exitX=0.5;exitY=0;exitDx=0;exitDy=0;entryX=0.5;entryY=0;entryDx=0;entryDy=0;" parent="1" source="8kBhJZ6nKaIt0Slx5SDv-12" target="8kBhJZ6nKaIt0Slx5SDv-16" edge="1">
          <mxGeometry relative="1" as="geometry">
            <Array as="points">
              <mxPoint x="720" y="2800" />
              <mxPoint x="1020" y="2800" />
            </Array>
          </mxGeometry>
        </mxCell>
        <mxCell id="8kBhJZ6nKaIt0Slx5SDv-20" value="Yes" style="edgeLabel;html=1;align=center;verticalAlign=middle;resizable=0;points=[];" parent="8kBhJZ6nKaIt0Slx5SDv-19" vertex="1" connectable="0">
          <mxGeometry x="-0.9146" y="-1" relative="1" as="geometry">
            <mxPoint x="9" y="6" as="offset" />
          </mxGeometry>
        </mxCell>
        <mxCell id="8kBhJZ6nKaIt0Slx5SDv-12" value="Is button press?" style="rhombus;whiteSpace=wrap;html=1;rounded=0;" parent="1" vertex="1">
          <mxGeometry x="680" y="2820" width="80" height="80" as="geometry" />
        </mxCell>
        <mxCell id="8kBhJZ6nKaIt0Slx5SDv-17" value="" style="edgeStyle=orthogonalEdgeStyle;rounded=0;orthogonalLoop=1;jettySize=auto;html=1;" parent="1" source="8kBhJZ6nKaIt0Slx5SDv-14" target="8kBhJZ6nKaIt0Slx5SDv-16" edge="1">
          <mxGeometry relative="1" as="geometry" />
        </mxCell>
        <mxCell id="8kBhJZ6nKaIt0Slx5SDv-14" value="Wait for 5 seconds" style="whiteSpace=wrap;html=1;rounded=0;" parent="1" vertex="1">
          <mxGeometry x="800" y="2830" width="120" height="60" as="geometry" />
        </mxCell>
        <mxCell id="8kBhJZ6nKaIt0Slx5SDv-70" style="edgeStyle=orthogonalEdgeStyle;rounded=0;orthogonalLoop=1;jettySize=auto;html=1;exitX=1;exitY=0.5;exitDx=0;exitDy=0;entryX=1;entryY=0.5;entryDx=0;entryDy=0;" parent="1" source="8kBhJZ6nKaIt0Slx5SDv-16" target="GLhe2Kuq0IlxSYnBa73q-44" edge="1">
          <mxGeometry relative="1" as="geometry" />
        </mxCell>
        <mxCell id="8kBhJZ6nKaIt0Slx5SDv-16" value="Stop timer" style="whiteSpace=wrap;html=1;rounded=0;" parent="1" vertex="1">
          <mxGeometry x="960" y="2830" width="120" height="60" as="geometry" />
        </mxCell>
        <mxCell id="8kBhJZ6nKaIt0Slx5SDv-31" style="edgeStyle=orthogonalEdgeStyle;rounded=0;orthogonalLoop=1;jettySize=auto;html=1;exitX=1;exitY=0.5;exitDx=0;exitDy=0;entryX=1;entryY=0.5;entryDx=0;entryDy=0;" parent="1" source="8kBhJZ6nKaIt0Slx5SDv-29" target="GLhe2Kuq0IlxSYnBa73q-11" edge="1">
          <mxGeometry relative="1" as="geometry">
            <Array as="points">
              <mxPoint x="360" y="2250" />
              <mxPoint x="360" y="2121" />
            </Array>
          </mxGeometry>
        </mxCell>
        <mxCell id="8kBhJZ6nKaIt0Slx5SDv-32" value="Yes" style="edgeLabel;html=1;align=center;verticalAlign=middle;resizable=0;points=[];" parent="8kBhJZ6nKaIt0Slx5SDv-31" vertex="1" connectable="0">
          <mxGeometry x="-0.7284" y="1" relative="1" as="geometry">
            <mxPoint y="-9" as="offset" />
          </mxGeometry>
        </mxCell>
        <mxCell id="8kBhJZ6nKaIt0Slx5SDv-33" style="edgeStyle=orthogonalEdgeStyle;rounded=0;orthogonalLoop=1;jettySize=auto;html=1;exitX=0.5;exitY=1;exitDx=0;exitDy=0;entryX=0.5;entryY=0;entryDx=0;entryDy=0;" parent="1" source="8kBhJZ6nKaIt0Slx5SDv-29" target="GLhe2Kuq0IlxSYnBa73q-13" edge="1">
          <mxGeometry relative="1" as="geometry" />
        </mxCell>
        <mxCell id="8kBhJZ6nKaIt0Slx5SDv-39" value="No" style="edgeLabel;html=1;align=center;verticalAlign=middle;resizable=0;points=[];" parent="8kBhJZ6nKaIt0Slx5SDv-33" vertex="1" connectable="0">
          <mxGeometry x="-0.2833" y="-2" relative="1" as="geometry">
            <mxPoint x="-9" as="offset" />
          </mxGeometry>
        </mxCell>
        <mxCell id="8kBhJZ6nKaIt0Slx5SDv-29" value="Is pass&lt;br&gt;5s?" style="rhombus;whiteSpace=wrap;html=1;rounded=0;strokeWidth=1;" parent="1" vertex="1">
          <mxGeometry x="240.37" y="2210" width="80" height="80" as="geometry" />
        </mxCell>
        <mxCell id="lDU1sBZHc6aSczLGMpa4-1" style="edgeStyle=orthogonalEdgeStyle;rounded=0;orthogonalLoop=1;jettySize=auto;html=1;exitX=1;exitY=0.5;exitDx=0;exitDy=0;entryX=1;entryY=0.5;entryDx=0;entryDy=0;" parent="1" source="8kBhJZ6nKaIt0Slx5SDv-35" target="GLhe2Kuq0IlxSYnBa73q-13" edge="1">
          <mxGeometry relative="1" as="geometry">
            <Array as="points">
              <mxPoint x="360" y="2494" />
              <mxPoint x="360" y="2370" />
            </Array>
          </mxGeometry>
        </mxCell>
        <mxCell id="lDU1sBZHc6aSczLGMpa4-2" value="Yes" style="edgeLabel;html=1;align=center;verticalAlign=middle;resizable=0;points=[];" parent="lDU1sBZHc6aSczLGMpa4-1" vertex="1" connectable="0">
          <mxGeometry x="-0.802" y="1" relative="1" as="geometry">
            <mxPoint x="2" y="-12" as="offset" />
          </mxGeometry>
        </mxCell>
        <mxCell id="8kBhJZ6nKaIt0Slx5SDv-35" value="Is pass &lt;br&gt;10s?" style="rhombus;whiteSpace=wrap;html=1;rounded=0;" parent="1" vertex="1">
          <mxGeometry x="240.385" y="2454" width="80" height="80" as="geometry" />
        </mxCell>
        <mxCell id="8kBhJZ6nKaIt0Slx5SDv-77" style="edgeStyle=orthogonalEdgeStyle;rounded=0;orthogonalLoop=1;jettySize=auto;html=1;exitX=0;exitY=0.5;exitDx=0;exitDy=0;entryX=0;entryY=0.5;entryDx=0;entryDy=0;" parent="1" source="8kBhJZ6nKaIt0Slx5SDv-46" target="GLhe2Kuq0IlxSYnBa73q-8" edge="1">
          <mxGeometry relative="1" as="geometry">
            <Array as="points">
              <mxPoint x="160" y="3190" />
              <mxPoint x="160" y="1910" />
            </Array>
          </mxGeometry>
        </mxCell>
        <mxCell id="8kBhJZ6nKaIt0Slx5SDv-46" value="Display LCD Mode 0:&lt;div&gt;Clock + Temperature&lt;/div&gt;" style="whiteSpace=wrap;html=1;" parent="1" vertex="1">
          <mxGeometry x="220" y="3160" width="120" height="60" as="geometry" />
        </mxCell>
        <mxCell id="8kBhJZ6nKaIt0Slx5SDv-64" style="edgeStyle=orthogonalEdgeStyle;rounded=0;orthogonalLoop=1;jettySize=auto;html=1;exitX=0.5;exitY=1;exitDx=0;exitDy=0;entryX=0.5;entryY=0;entryDx=0;entryDy=0;" parent="1" source="8kBhJZ6nKaIt0Slx5SDv-48" target="8kBhJZ6nKaIt0Slx5SDv-46" edge="1">
          <mxGeometry relative="1" as="geometry" />
        </mxCell>
        <mxCell id="8kBhJZ6nKaIt0Slx5SDv-66" value="No" style="edgeLabel;html=1;align=center;verticalAlign=middle;resizable=0;points=[];" parent="8kBhJZ6nKaIt0Slx5SDv-64" vertex="1" connectable="0">
          <mxGeometry x="-0.2278" y="-3" relative="1" as="geometry">
            <mxPoint x="-7" as="offset" />
          </mxGeometry>
        </mxCell>
        <mxCell id="8kBhJZ6nKaIt0Slx5SDv-65" style="edgeStyle=orthogonalEdgeStyle;rounded=0;orthogonalLoop=1;jettySize=auto;html=1;exitX=1;exitY=0.5;exitDx=0;exitDy=0;entryX=1;entryY=0.5;entryDx=0;entryDy=0;" parent="1" source="8kBhJZ6nKaIt0Slx5SDv-48" target="8kBhJZ6nKaIt0Slx5SDv-50" edge="1">
          <mxGeometry relative="1" as="geometry" />
        </mxCell>
        <mxCell id="8kBhJZ6nKaIt0Slx5SDv-67" value="Yes" style="edgeLabel;html=1;align=center;verticalAlign=middle;resizable=0;points=[];" parent="8kBhJZ6nKaIt0Slx5SDv-65" vertex="1" connectable="0">
          <mxGeometry x="-0.8676" y="3" relative="1" as="geometry">
            <mxPoint x="-2" y="-7" as="offset" />
          </mxGeometry>
        </mxCell>
        <mxCell id="8kBhJZ6nKaIt0Slx5SDv-48" value="Is pass &lt;br&gt;1 minute?" style="rhombus;whiteSpace=wrap;html=1;" parent="1" vertex="1">
          <mxGeometry x="240" y="3040" width="80" height="80" as="geometry" />
        </mxCell>
        <mxCell id="8kBhJZ6nKaIt0Slx5SDv-50" value="Display LCD Mode 1:&lt;br&gt;Weather Infomation" style="whiteSpace=wrap;html=1;" parent="1" vertex="1">
          <mxGeometry x="224.75" y="3260" width="120" height="60" as="geometry" />
        </mxCell>
      </root>
    </mxGraphModel>
  </diagram>
</mxfile>
